# xmcd
#
# Track frame offsets:
#	150
#	17948
#	31203
#	49310
#	64957
#
# Disc length: 1108 seconds
#
# Revision: 1
# Processed by: cddbd v1.4PL0 Copyright (c) Steve Scherf et al.
# Submitted via: audiograbber 1.80.04
#
DISCID=41045205
DTITLE=Williams, Tim - Demo
DYEAR=2002
DGENRE=Country
TTITLE0=Even Though
TTITLE1=Lay Down Beside Me
TTITLE2=I'm No Superman
TTITLE3=Crack in the Dam
TTITLE4=Only Rains on Me
EXTD=
EXTT0=
EXTT1=
EXTT2=
EXTT3=
EXTT4=
PLAYORDER=
